<svg xmlns="http://www.w3.org/2000/svg" viewBox="0 0 900 135" width="900" height="135">
  <g fill="#FFF" fill-rule="nonzero">
    <path d="M97.5325756 77.0961548v-38.601838H78.5326723v96.3446192h18.9999033V86.7199516c0-24.0593833 18.9994684-28.8711729 37.9995884-28.8711729V38.4943168c-23.749334 0-37.9995884 14.5425635-37.9995884 38.601838z"/>
    <path d="M202.347642 96.3436397c0 14.4358043-9.499516 19.2470493-18.999033 19.2470493-9.500604 0-19.00012-4.811245-19.00012-19.2470493V38.4943168h-19.000121v67.4731202c0 19.24792 14.249818 28.871499 28.499637 28.871499 14.249818 0 28.499637-9.623579 28.499637-28.871499v28.871499h19.000121V38.4943168h-19.000121v57.8493229z"/>
    <path d="M274.652358 38.4943168c-23.749335 0-42.749456 19.2474849-42.749456 48.2256348 0 28.9784764 19.000121 48.2256344 47.60532 48.2256344 19.000121 0 28.499638-9.623579 28.499638-9.623579v-19.247702s-9.499517 9.624123-28.499638 9.624123c-12.983071 0-26.071704-8.127098-28.18295-24.0597097h66.182104v-4.8118985c0-28.9780411-19.104595-48.332503-42.855018-48.332503zm-22.799275 38.601838c2.639057-12.9385611 11.188513-19.2473761 22.799275-19.2473761 11.61185 0 20.161306 6.308815 22.800363 19.2473761h-45.599638z"/>
    <path d="M472.356348 38.4943168c-28.499637 0-47.60532 19.2474849-47.60532 48.2256348 0 28.9784764 19.000121 48.2256344 47.60532 48.2256344 28.6052 0 47.605321-19.247158 47.605321-48.2256344 0-28.9781499-19.105684-48.2256348-47.605321-48.2256348zm0 77.0963722c-14.249818 0-28.499637-9.623252-28.499637-28.8707374 0-19.2474849 14.249819-28.8711729 28.499637-28.8711729 14.249819 0 28.499637 9.623688 28.499637 28.8711729 0 19.2474854-14.249818 28.8707374-28.499637 28.8707374z"/>
    <path d="M664.676663 38.4943168c-28.499638 0-47.604233 19.2474849-47.604233 48.2256348 0 28.9784764 18.999033 48.2256344 47.604233 48.2256344 28.605199 0 47.60532-19.247158 47.60532-48.2256344 0-28.9781499-19.105683-48.2256348-47.60532-48.2256348zm0 77.0963722c-14.249819 0-28.499638-9.623252-28.499638-28.8707374 0-19.2474849 14.249819-28.8711729 28.499638-28.8711729 14.249818 0 28.499637 9.623688 28.499637 28.8711729 0 19.2474854-14.249819 28.8707374-28.499637 28.8707374z"/>
    <path d="M739.408222 77.0961548v-38.601838H720.40919v96.3446192h18.999032V86.7199516c0-24.0593833 19.000121-28.8711729 38.000242-28.8711729V38.4943168c-23.750423 0-38.000242 14.5425635-38.000242 38.601838z"/>
    <path d="M617.071342 38.4949698h-28.499637V19.2474849h28.499637V0h-9.499516c-21.005804 0-38.000242 17.215792-38.000242 38.4949698h-18.999033v19.2474849h18.999033v77.0964813h19.000121V57.7424547h28.499637V38.4949698z"/>
    <path d="M875.890447 38.4943168c-14.249818 0-23.749335 9.6237969-23.749335 24.0593833 0-14.4355864-9.499516-24.0593833-23.749334-24.0593833-14.249819 0-23.750424 9.6237969-23.750424 24.0593833V38.4943168h-19.000121v96.3446192h19.000121V72.2843652c0-9.6237969 4.750303-14.4355865 14.249819-14.4355865 9.500605 0 14.249819 4.8117896 14.249819 14.4355865v62.6612208h19.00012V72.2843652c0-9.6237969 4.750303-14.4355865 14.249819-14.4355865s14.249819 4.8117896 14.249819 14.4355865v62.6612208h19.000121V62.6605683c0-14.4355864-9.500605-24.1662515-23.750424-24.1662515z"/>
    <path d="M394.667956 8.44764813h-19.00012V38.4950786h-18.999033v19.2474849h18.999033v48.2256345c0 19.247159 9.500604 28.870738 28.499637 28.870738h19.000121v-19.247158h-28.499638V57.8495405h28.499638V38.4950786h-28.499638V8.44764813z"/>
    <path d="M37.9995889 8.44764813H18.9997944V38.4950786H0v19.2474849h18.9997944v48.2256345c0 19.247159 9.4999517 28.870738 28.4997461 28.870738h18.9997944v-19.247158h-28.499746V57.8495405h28.499746V38.4950786h-28.499746V8.44764813z"/>
  </g>
</svg>