<svg xmlns="http://www.w3.org/2000/svg" fill="none" viewBox="0 0 381 193" width="381" height="193">
  <path fill="#fff" d="M82.4072 49.6994h7.0069V7.00896h17.4999V.685714H64.9072V7.00896h17.5V49.6994z"/>
  <path fill="#fff" d="M114.365 49.6994h7.007V28.3371h24.849v21.3623h7.007V.685714h-7.007V22.048h-24.849V.685714h-7.007V49.6994z"/>
  <path fill="#fff" d="M165.84 49.6994h7.007V.685714h-7.007V49.6994z"/>
  <path fill="#fff" d="M181.699 33.9426c.342 10.7666 7.622 16.4404 19.243 16.4404 10.767.0683 18.218-5.4688 18.116-13.9112 0-7.6904-4.444-12.4072-13.365-14.1503l-7.827-1.5381c-4.238-.8545-6.733-3.1787-6.733-6.8701 0-4.34087 4.17-7.62212 10.151-7.62212h.718c5.947 0 10.425 3.55469 10.767 9.09182h7.006C219.434 5.98357 212.461.00212024 201.626.00212024 191.338-.134599 183.989 6.35954 184.126 14.0158c0 7.6221 4.375 12.1338 12.407 13.7744l7.827 1.6065c5.23 1.0595 7.725 3.3837 7.725 7.3486 0 4.1015-3.76 7.3486-10.151 7.3486h-.718c-7.451 0-12.51-3.5888-12.51-10.1513h-7.007z"/>
  <path fill="#fff" d="M246.367 49.6994h7.007V.685714h-7.007V49.6994z"/>
  <path fill="#fff" d="M262.227 33.9426c.341 10.7666 7.622 16.4404 19.243 16.4404 10.766.0683 18.218-5.4688 18.115-13.9112 0-7.6904-4.443-12.4072-13.364-14.1503l-7.827-1.5381c-4.239-.8545-6.734-3.1787-6.734-6.8701 0-4.34087 4.17-7.62212 10.152-7.62212h.717c5.948 0 10.425 3.55469 10.767 9.09182h7.007c-.342-9.39943-7.315-15.38087976-18.15-15.38087976C271.865-.134599 264.517 6.35954 264.653 14.0158c0 7.6221 4.375 12.1338 12.408 13.7744l7.827 1.6065c5.229 1.0595 7.724 3.3837 7.724 7.3486 0 4.1015-3.759 7.3486-10.151 7.3486h-.718c-7.451 0-12.51-3.5888-12.51-10.1513h-7.006z"/>
  <path fill="#fff" d="M40.332 120.699h7.2803L28.3691 71.6857h-8.955L0 120.699h7.14355l4.92185-12.612h23.3448l4.9218 12.612zm-25.8398-18.901l9.2285-23.6523 9.2285 23.6523h-18.457z"/>
  <path fill="#fff" d="M69.9316 120.699h7.0069V99.3371h24.8485v21.3619h7.007V71.6857h-7.007V93.048H76.9385V71.6857h-7.0069v49.0133z"/>
  <path fill="#fff" d="M118.535 96.1926c-.171 15.4154 9.878 25.3274 23.106 25.1904 13.227.137 23.276-9.775 23.105-25.1904.171-15.4151-9.878-25.3272-23.105-25.1905-13.228-.1367-23.277 9.7754-23.106 25.1905zm22.764 18.9014c-9.058.102-15.894-7.28-15.757-18.9014-.137-11.6211 6.699-19.004 15.757-18.9014h.683c9.092-.1367 15.86 7.2803 15.757 18.9014.103 11.6214-6.665 19.0384-15.757 18.9014h-.683z"/>
  <path fill="#fff" d="M174.453 120.699h35.718v-6.289H181.46V71.6857h-7.007v49.0133z"/>
  <path fill="#fff" d="M217.656 120.699h17.5c13.604.137 22.901-9.331 22.764-24.5064.137-15.1417-9.16-24.6094-22.764-24.5069h-17.5v49.0133zm7.007-6.289V78.009h9.81c10.561 0 16.44 6.3916 16.44 18.1836 0 11.8604-5.879 18.2174-16.44 18.2174h-9.81z"/>
  <path fill="#fff" d="M267.695 120.699h7.007V71.6857h-7.007v49.0133z"/>
  <path fill="#fff" d="M319.888 71.6857v40.6053l-22.764-40.6053h-9.81v49.0133h7.007V80.1623l22.764 40.5367h9.775V71.6857h-6.972z"/>
  <path fill="#fff" d="M336.533 96.1926c-.171 14.5604 9.4 25.3954 23.106 25.1904 7.793.068 13.09-3.828 14.697-6.221v5.537h6.323v-18.901c0-3.8623-2.119-5.9472-5.981-5.9472h-14.322v6.2202h13.98v1.333c.102 6.358-5.161 11.792-13.638 11.69h-.718c-9.741.102-16.542-7.212-16.44-18.9014-.102-11.6895 6.699-19.004 16.44-18.9014h.718c7.349 0 11.895 3.7939 12.613 10.4931h6.972c-.615-9.6044-7.656-16.8847-19.927-16.7822-14.389-.1709-23.994 10.5957-23.823 25.1905z"/>
  <path fill="#fff" d="M105.273 191.699h7.007v-19.311h13.638c9.092.068 15.859-5.606 15.757-14.834.102-9.229-6.665-14.971-15.757-14.868h-20.645v49.013zm7.007-25.634v-17.056h12.613c6.323 0 9.775 2.974 9.775 8.545s-3.452 8.511-9.775 8.511H112.28z"/>
  <path fill="#fff" d="M181.494 191.699h7.28l-19.243-49.013h-8.955l-19.414 49.013h7.144l4.922-12.612h23.344l4.922 12.612zm-25.84-18.901l9.229-23.652 9.228 23.652h-18.457z"/>
  <path fill="#fff" d="M191.406 167.193c-.171 14.56 9.4 25.395 23.106 25.19 7.793.068 13.091-3.828 14.697-6.221v5.537h6.323v-18.901c0-3.862-2.119-5.947-5.981-5.947h-14.322v6.22h13.98v1.333c.103 6.358-5.161 11.792-13.638 11.69h-.717c-9.742.102-16.543-7.212-16.441-18.901-.102-11.69 6.699-19.004 16.441-18.902h.717c7.349 0 11.895 3.794 12.613 10.493h6.972c-.615-9.604-7.656-16.884-19.927-16.782-14.389-.171-23.994 10.596-23.823 25.191z"/>
  <path fill="#fff" d="M245.957 191.699h36.401v-6.289h-29.394v-15.757h24.507v-6.289h-24.507v-14.355h28.711v-6.323h-35.718v49.013z"/>
</svg>